# xmcd
#
# Track frame offsets:
#	150
#	16602
#	30072
#	42695
#	61470
#	73637
#	87635
#	104615
#	119112
#	134115
#	147875
#	164605
#	176797
#	191305
#	201912
#
# Disc length: 2880 seconds
#
# Revision: 2
# Processed by: cddbd v1.5.2PL0 Copyright (c) Steve Scherf et al.
# Submitted via: EZCDAudioConverter 3.1.0.1
#
DISCID=e40b3e0f
DTITLE=VARIOS ARTISTAS - OS GRANDES XOTES E VANERÕES - 1993 [CD 994972-2) CONT
DTITLE=INENTAL 
DYEAR=1993
DGENRE=country
TTITLE0=GAUCHO DA FRONTEIRA - FANDANGO DA ESPERANÇA (BY GILMAR SINISTRO)
TTITLE1=OS MONARCAS - ERA TUM, TUM, TUM (BY GILMAR SINISTRO)
TTITLE2=OS MARAGATOS - XOTE GOSTOSO (BY GILMAR SINISTRO)
TTITLE3=OS SERRANOS - BAILANTA DO TIBÚRCIO (BY GILMAR SINISTRO)
TTITLE4=GRUPO MINUANO - VANERÃO LARGADO (BY GILMAR SINISTRO)
TTITLE5=OS MONARCAS - DOMINGUEIRA (BY GILMAR SINISTRO)
TTITLE6=OS GAROTOS DE OURO - MORENAÇA (BY GILMAR SINISTRO)
TTITLE7=GAUCHO DA FRONTEIRA - PAIXÃO INGRATA (BY GILMAR SINISTRO)
TTITLE8=OS GAROTOS DE OURO - BARBARIDADE TCHÊ (BY GILMAR SINISTRO)
TTITLE9=OS SERRANOS - CAPÃO DE MATO (BY GILMAR SINISTRO)
TTITLE10=OS FILHOS DO RIO GRANDE - XOTE DO CAMINHONEIRO (BY GILMAR SINISTRO)
TTITLE11=OS MIRINS - VANERINHA DA ESPERANÇA (BY GILMAR SINISTRO)
TTITLE12=OS SERRANOS - A DANÇA DO XOTE (BY GILMAR SINISTRO)
TTITLE13=OS MONARCAS - NO REPICAR DA VANEIRA (BY GILMAR SINISTRO)
TTITLE14=OS GAROTOS DE OURO - ÂNSIA DE BAILE (BY GILMAR SINISTRO)
EXTD=
EXTT0=
EXTT1=
EXTT2=
EXTT3=
EXTT4=
EXTT5=
EXTT6=
EXTT7=
EXTT8=
EXTT9=
EXTT10=
EXTT11=
EXTT12=
EXTT13=
EXTT14=
PLAYORDER=
